<svg xmlns="http://www.w3.org/2000/svg" width="416" height="111" fill="none"><path fill="#0152ff" fill-rule="evenodd" d="M110.034 55.017c0 30.385-24.675 55.017-55.113 55.017-28.878 0-52.568-22.172-54.921-50.392h72.847v-9.25H0C2.353 22.172 26.043 0 54.921 0c30.438 0 55.113 24.632 55.113 55.017m204.324 45.049c19.097 0 31.622-10.292 31.622-25.793 0-14.385-9.425-21.205-23.685-23.561l-12.649-2.108c-9.672-1.612-16.121-5.829-16.121-15.13 0-9.423 7.193-16.616 20.833-16.616 13.269 0 20.089 6.696 20.833 16.245h9.549c-.744-12.649-10.417-23.933-30.258-23.933-19.593 0-30.381 11.036-30.381 24.677 0 14.509 9.796 21.205 23.189 23.437l12.773 1.984c10.664 1.86 16.616 6.2 16.616 15.377 0 10.789-8.804 17.733-22.197 17.733-13.888 0-22.569-6.696-23.313-18.105h-9.424c.744 14.88 12.152 25.793 32.613 25.793M173.574 98.33h-34.722v-87.3h33.482c14.757 0 25.049 8.68 25.049 22.569 0 10.045-5.704 16.74-14.88 18.973v.372c10.912 2.108 17.608 9.548 17.608 21.205 0 15.005-11.036 24.181-26.537 24.181m-2.48-48.982c10.541 0 16.989-5.704 16.989-14.633v-1.24c0-8.928-6.448-14.509-16.989-14.509h-22.941v30.382zm1.116 41.046c11.533 0 18.601-6.324 18.601-15.997v-1.24c0-10.044-7.192-16.12-18.725-16.12h-23.933v33.357zm103.006 7.936h-9.921l-7.44-23.685h-34.722l-7.44 23.685h-9.425l28.646-87.3h11.284zM240.99 20.578h-.744l-14.633 46.255h29.886zM359.949 98.33v-87.3H416v8.06h-46.75V49.1h43.03v7.936h-43.03V90.27H416v8.06z" clip-rule="evenodd"/></svg>